# xmcd
#
# Track frame offsets:
#	150
#	16695
#	32257
#	47577
#	70316
#	89425
#	106843
#	116508
#	144241
#	160594
#	183334
#	203733
#	220528
#	231600
#	242980
#	261697
#
# Disc length: 3700 seconds
#
# Revision: 1
# Processed by: cddbd v1.5.1PL0 Copyright (c) Steve Scherf et al.
# Submitted via: audiograbber 1.83.01
#
DISCID=d50e7210
DTITLE=STONEHENGE - Retour
DYEAR=2005
DGENRE=Blues
TTITLE0=Kein Kredit
TTITLE1=Kloss im Hals
TTITLE2=Alles auf Papier
TTITLE3=Kino
TTITLE4=Strandgut
TTITLE5=Die Tretmühle
TTITLE6=Swing Bee
TTITLE7=Jeden Abend, jede Nacht
TTITLE8=Martha
TTITLE9=Dritter Stein der Sonne
TTITLE10=Arsch mit Ohren
TTITLE11=Sex aus Singapur
TTITLE12=Schwarz auf Weiß
TTITLE13=Dicke Luft
TTITLE14=Schmacht
TTITLE15=Blei an den Flügeln
EXTD=
EXTT0=
EXTT1=
EXTT2=
EXTT3=
EXTT4=
EXTT5=
EXTT6=
EXTT7=
EXTT8=
EXTT9=
EXTT10=
EXTT11=
EXTT12=
EXTT13=
EXTT14=
EXTT15=
PLAYORDER=
